<svg xmlns="http://www.w3.org/2000/svg" width="97" height="39" viewBox="0 0 97 39" fill="none"><path d="M10.9727 24.0554V38.1807H40.9655V28.1682H21.6515V24.0554H40.9655V14.043H20.9861C15.4561 14.043 10.9736 18.5254 10.9736 24.0554" fill="#47A3FF"/><path d="M10.9727 0.00585938C10.9727 5.53588 15.4551 10.0183 20.9851 10.0183H40.9645V0.00585938H10.9727Z" fill="#47A3FF"/><path d="M8.28488 3.90769C8.84361 8.19028 12.0369 11.3836 16.3195 11.9423C16.4204 11.9559 16.4204 12.1033 16.3195 12.1169C12.0369 12.6756 8.84361 15.8689 8.28488 20.1515C8.2713 20.2524 8.12386 20.2524 8.11028 20.1515C7.55155 15.8689 4.35827 12.6756 0.075661 12.1169C-0.0252203 12.1033 -0.0252203 11.9559 0.075661 11.9423C4.35827 11.3836 7.55155 8.19028 8.11028 3.90769C8.12386 3.80681 8.2713 3.80681 8.28488 3.90769Z" fill="#47A3FF"/><path d="M70.6103 0.00585938V20.1879L55.2365 0.00585938H44.9961V38.166H55.8389V17.2875L71.815 38.166H81.4531V0.00585938H70.6103Z" fill="#47A3FF"/><path d="M96.9994 0H85.9141V38.167H96.9994V0Z" fill="#47A3FF"/></svg>